# MedViz demo case: jaw trauma reconstruction (anonymized synthetic geometry)
o jaw_trauma_reconstruction_case

# Left segment
v -2.400 -0.700 -1.100
v -0.600 -0.700 -1.100
v -0.600 0.250 -1.100
v -2.400 0.250 -1.100
v -2.400 -0.700 0.900
v -0.600 -0.700 0.900
v -0.600 0.250 0.900
v -2.400 0.250 0.900

# Right segment (fracture gap)
v 0.250 -0.700 -1.000
v 2.300 -0.700 -1.000
v 2.300 0.300 -1.000
v 0.250 0.300 -1.000
v 0.250 -0.700 1.000
v 2.300 -0.700 1.000
v 2.300 0.300 1.000
v 0.250 0.300 1.000

# Reconstruction plate
v -0.550 0.220 -0.250
v 0.350 0.220 -0.250
v 0.350 0.420 -0.250
v -0.550 0.420 -0.250
v -0.550 0.220 0.350
v 0.350 0.220 0.350
v 0.350 0.420 0.350
v -0.550 0.420 0.350

# Left segment faces
f 1 2 3
f 1 3 4
f 5 8 7
f 5 7 6
f 1 5 6
f 1 6 2
f 2 6 7
f 2 7 3
f 3 7 8
f 3 8 4
f 4 8 5
f 4 5 1

# Right segment faces
f 9 10 11
f 9 11 12
f 13 16 15
f 13 15 14
f 9 13 14
f 9 14 10
f 10 14 15
f 10 15 11
f 11 15 16
f 11 16 12
f 12 16 13
f 12 13 9

# Plate faces
f 17 18 19
f 17 19 20
f 21 24 23
f 21 23 22
f 17 21 22
f 17 22 18
f 18 22 23
f 18 23 19
f 19 23 24
f 19 24 20
f 20 24 21
f 20 21 17
