# MedViz demo case: team sharing workflow (anonymized synthetic geometry)
o team_sharing_case

# Left arch block
v -2.200 -0.500 -0.900
v -0.900 -0.500 -0.900
v -0.900 0.250 -0.900
v -2.200 0.250 -0.900
v -2.200 -0.500 0.900
v -0.900 -0.500 0.900
v -0.900 0.250 0.900
v -2.200 0.250 0.900

# Right arch block
v 0.900 -0.500 -0.900
v 2.200 -0.500 -0.900
v 2.200 0.250 -0.900
v 0.900 0.250 -0.900
v 0.900 -0.500 0.900
v 2.200 -0.500 0.900
v 2.200 0.250 0.900
v 0.900 0.250 0.900

# Front connector
v -1.000 -0.500 0.450
v 1.000 -0.500 0.450
v 1.000 0.250 0.450
v -1.000 0.250 0.450
v -1.000 -0.500 1.300
v 1.000 -0.500 1.300
v 1.000 0.250 1.300
v -1.000 0.250 1.300

# Collaboration marker tower
v -0.180 0.250 -0.200
v 0.180 0.250 -0.200
v 0.180 1.050 -0.200
v -0.180 1.050 -0.200
v -0.180 0.250 0.200
v 0.180 0.250 0.200
v 0.180 1.050 0.200
v -0.180 1.050 0.200

# Left arch faces
f 1 2 3
f 1 3 4
f 5 8 7
f 5 7 6
f 1 5 6
f 1 6 2
f 2 6 7
f 2 7 3
f 3 7 8
f 3 8 4
f 4 8 5
f 4 5 1

# Right arch faces
f 9 10 11
f 9 11 12
f 13 16 15
f 13 15 14
f 9 13 14
f 9 14 10
f 10 14 15
f 10 15 11
f 11 15 16
f 11 16 12
f 12 16 13
f 12 13 9

# Front connector faces
f 17 18 19
f 17 19 20
f 21 24 23
f 21 23 22
f 17 21 22
f 17 22 18
f 18 22 23
f 18 23 19
f 19 23 24
f 19 24 20
f 20 24 21
f 20 21 17

# Tower faces
f 25 26 27
f 25 27 28
f 29 32 31
f 29 31 30
f 25 29 30
f 25 30 26
f 26 30 31
f 26 31 27
f 27 31 32
f 27 32 28
f 28 32 29
f 28 29 25
